<svg xmlns="http://www.w3.org/2000/svg" width="32" height="32" viewBox="0 0 24 24" fill="none" stroke="#ffffff" stroke-width="1.8" stroke-linecap="round" stroke-linejoin="round">
  <path d="M3 7V5a2 2 0 0 1 2-2h2" />
  <path d="M17 3h2a2 2 0 0 1 2 2v2" />
  <path d="M21 17v2a2 2 0 0 1-2 2h-2" />
  <path d="M7 21H5a2 2 0 0 1-2-2v-2" />
  <circle cx="12" cy="12" r="3" />
  <line x1="12" y1="9" x2="12" y2="3" />
  <line x1="15" y1="12" x2="21" y2="12" />
  <line x1="12" y1="15" x2="12" y2="21" />
  <line x1="9" y1="12" x2="3" y2="12" />
</svg>
